<?xml version="1.0" encoding="utf-8"?>
<!-- Generator: Adobe Illustrator 24.0.2, SVG Export Plug-In . SVG Version: 6.00 Build 0)  -->
<svg version="1.1" id="Capa_1" xmlns="http://www.w3.org/2000/svg" xmlns:xlink="http://www.w3.org/1999/xlink" x="0px" y="0px"
	 viewBox="0 0 365.5 127.5" style="enable-background:new 0 0 365.5 127.5;" xml:space="preserve">
<style type="text/css">
	.st0{fill:none;}
	.st1{font-family:'Gilroy-Bold';}
	.st2{font-size:93px;}
	.st3{letter-spacing:4;}
</style>
<title>logo-png</title>
<g id="Capa_2_1_">
	<g id="Capa_2-2">
		<path d="M121.1,33.6c-3.7-3.7-8.8-5.8-14-5.8c-2.4,0-8.3-0.1-8.3-0.1l-6,6L0,127.1h56.4l64.8-65.3C128.9,54,128.9,41.4,121.1,33.6
			z"/>
		<path d="M73.3-0.3H45.7C22.2-1.9,1.9,15.9,0.4,39.4c-0.8,12,3.5,23.8,11.9,32.5l0,0l9.4,9.5l81.1-81.7
			C102.8-0.3,73.3-0.3,73.3-0.3z"/>
		<circle cx="111.3" cy="111.1" r="16"/>
	</g>
</g>
<rect x="162.8" y="15.8" class="st0" width="198.4" height="96"/>
<text transform="matrix(1 0 0 1 162.831 80.8502)" class="st1 st2 st3">OS</text>
</svg>
