<svg xmlns="http://www.w3.org/2000/svg" viewBox="0 0 1201.3 1346.42"><defs><style>.cls-1{fill:#fff;}</style></defs><title>logo1.1w</title><g id="Capa_2" data-name="Capa 2"><g id="Capa_1-2" data-name="Capa 1"><path class="cls-1" d="M603.59,15a26.18,26.18,0,0,1,18.6,7.7L783.67,184.19,401,1000.52,22.7,622.19a26.35,26.35,0,0,1,0-37.2L585,22.7a26.16,26.16,0,0,1,18.6-7.7m0-15a41.17,41.17,0,0,0-29.21,12.1L12.1,574.38a41.3,41.3,0,0,0,0,58.41l393.45,393.46L801.72,181,632.79,12.1A41.13,41.13,0,0,0,603.59,0Z"/><path class="cls-1" d="M800.36,346l378.23,378.24a26.29,26.29,0,0,1,0,37.2L616.31,1323.72a26.31,26.31,0,0,1-37.2,0L417.73,1162.33,800.36,346m-4.51-25.72L399.68,1165.5l168.83,168.83a41.32,41.32,0,0,0,58.41,0L1189.2,772a41.3,41.3,0,0,0,0-58.41L795.85,320.28Z"/></g></g></svg>