<svg xmlns="http://www.w3.org/2000/svg" viewBox="0 0 424.48 613.3"><defs><style>.cls-1{fill:none;stroke:#fff;stroke-miterlimit:10;stroke-width:13px;}.cls-2{fill:#fff;}</style></defs><title>Recurso 12</title><g id="Capa_2" data-name="Capa 2"><g id="Capa_1-2" data-name="Capa 1"><path class="cls-1" d="M222.07,60.84A151.87,151.87,0,0,1,360,212.06V413.2a24.9,24.9,0,1,0,49.8,0v-205C409.81,96.78,319.53,6.5,208.16,6.5h0C96.78,6.5,6.5,96.78,6.5,208.16V554.07A52.73,52.73,0,0,0,59.23,606.8h0A52.73,52.73,0,0,0,112,554.07V215a96.19,96.19,0,0,1,96.19-96.19h0A96.2,96.2,0,0,1,304.35,215V554.07a52.73,52.73,0,0,0,52.73,52.73h0a52.73,52.73,0,0,0,52.73-52.73V505.52"/><path class="cls-2" d="M222.09,75.57a14.66,14.66,0,1,1,15.36-13.93A14.65,14.65,0,0,1,222.09,75.57Z"/><path class="cls-2" d="M424.48,506.25a14.67,14.67,0,1,0-14.67,14.67A14.67,14.67,0,0,0,424.48,506.25Z"/></g></g></svg>