<svg xmlns="http://www.w3.org/2000/svg" viewBox="0 0 463.02 657.54"><defs><style>.cls-1{fill:#fff;}</style></defs><title>Recurso 10</title><g id="Capa_2" data-name="Capa 2"><g id="Capa_1-2" data-name="Capa 1"><path class="cls-1" d="M463,549.56A25.07,25.07,0,1,0,426.84,572v18.59a44.7,44.7,0,0,1-89.4,0V231.76a112.91,112.91,0,0,0-225.82,0V590.62a44.7,44.7,0,0,1-89.4,0V224.53C22.22,113,113,22.22,224.53,22.22S426.84,113,426.84,224.53v217a15.25,15.25,0,0,1-30.49,0V228.66A171.86,171.86,0,0,0,273.9,64.07a25.06,25.06,0,1,0-5,21.72c61.32,19.14,105.22,77,105.22,142.87V441.54a37.47,37.47,0,0,0,74.93,0v-217C449.06,100.72,348.34,0,224.53,0S0,100.72,0,224.53V590.62a66.92,66.92,0,0,0,133.84,0V231.76a90.69,90.69,0,0,1,181.38,0V590.62a66.92,66.92,0,0,0,133.84,0V572A25.06,25.06,0,0,0,463,549.56Z"/></g></g></svg>