<svg xmlns="http://www.w3.org/2000/svg" viewBox="0 0 1080 1080"><defs><style>.cls-1{fill:#fff;}</style></defs><title>Recurso 9</title><g id="Capa_2" data-name="Capa 2"><g id="Capa_1-2" data-name="Capa 1"><rect width="1080" height="1080" rx="540"/><path class="cls-1" d="M771.51,760.79a25.07,25.07,0,1,0-36.18,22.47v18.59a44.7,44.7,0,0,1-89.4,0V443a112.91,112.91,0,1,0-225.82,0V801.85a44.7,44.7,0,1,1-89.39,0V435.76c0-111.55,90.75-202.31,202.3-202.31s202.31,90.76,202.31,202.31v217a15.25,15.25,0,0,1-30.49,0V439.89A171.84,171.84,0,0,0,582.4,275.3a25.07,25.07,0,1,0-5,21.72c61.32,19.14,105.22,77,105.22,142.87V652.77a37.47,37.47,0,0,0,74.93,0v-217C757.55,312,656.83,211.23,533,211.23S308.49,312,308.49,435.76V801.85a66.93,66.93,0,0,0,133.85,0V443a90.69,90.69,0,0,1,181.37,0V801.85a66.92,66.92,0,0,0,133.84,0V783.26A25.06,25.06,0,0,0,771.51,760.79Z"/></g></g></svg>