<svg xmlns="http://www.w3.org/2000/svg" viewBox="0 0 634.97 929.05"><title>Recurso 13</title><g id="Capa_2" data-name="Capa 2"><g id="Capa_1-2" data-name="Capa 1"><path d="M635,760A12.73,12.73,0,1,0,616.6,771.4v71.39a75,75,0,0,1-150,0V324.39a152.7,152.7,0,1,0-305.4,0v518.4a75,75,0,0,1-150,0V313.94c0-166.89,135.77-302.66,302.66-302.66S616.6,147.05,616.6,313.94V627.42a32.43,32.43,0,0,1-64.86,0V319.91A237.82,237.82,0,0,0,338.47,83.37a12.73,12.73,0,1,0-.88,11.25c114.69,11.85,202.87,108.61,202.87,225.29V627.42a43.71,43.71,0,1,0,87.42,0V313.94A314,314,0,0,0,24.67,191.74,312,312,0,0,0,0,313.94V842.79a86.26,86.26,0,0,0,172.52,0V324.39c0-78,63.44-141.42,141.42-141.42s141.42,63.44,141.42,141.42v518.4a86.26,86.26,0,0,0,172.52,0V771.4A12.73,12.73,0,0,0,635,760Z"/></g></g></svg>